<svg version="1.0" xmlns="http://www.w3.org/2000/svg"
 width="439.000000pt" height="438.000000pt" viewBox="0 0 439.000000 438.000000"
 preserveAspectRatio="xMidYMid meet">

<g transform="translate(0.000000,438.000000) scale(0.100000,-0.100000)"
fill="#ffffff" stroke="none">
<path d="M0 2190 l0 -2190 2195 0 2195 0 0 2190 0 2190 -2195 0 -2195 0 0
-2190z"/>
</g>
<g transform="translate(0.000000,438.000000) scale(0.100000,-0.100000)"
fill="#7f0000" stroke="none">
<path d="M0 2190 l0 -2190 2195 0 2195 0 0 2190 0 2190 -2195 0 -2195 0 0
-2190z m2351 675 c229 -41 410 -136 565 -297 118 -123 210 -283 248 -430 l13
-53 289 -3 c159 -1 295 -4 302 -7 9 -3 -12 -41 -63 -114 -41 -60 -75 -112 -75
-116 0 -4 34 -56 74 -115 41 -59 72 -110 69 -114 -4 -3 -142 -6 -308 -6 l-303
0 -11 -45 -11 -45 -950 0 -950 0 -11 45 -11 45 -303 0 c-166 0 -304 3 -308 6
-3 4 28 55 69 114 40 59 74 111 74 115 0 4 -34 56 -76 116 -51 74 -71 111 -62
114 7 3 143 6 302 7 l289 3 23 78 c26 88 77 194 135 279 215 316 620 489 990
423z"/>
<path d="M2011 2795 c-353 -77 -625 -326 -724 -662 l-16 -53 34 0 c32 0 35 3
48 48 18 59 58 144 66 140 3 -2 27 -14 52 -27 49 -25 75 -23 86 5 7 19 -21 46
-76 76 l-32 18 44 57 c57 75 196 203 220 203 3 0 19 -22 36 -50 23 -38 37 -50
55 -50 37 0 42 32 12 83 -14 24 -26 48 -26 54 0 25 185 86 298 98 l62 7 0 -60
c0 -65 15 -88 50 -77 17 5 20 15 20 66 0 43 4 61 14 65 38 15 275 -44 334 -82
l23 -15 -27 -48 c-31 -58 -29 -85 7 -89 22 -3 31 5 54 45 15 26 29 50 31 52 8
9 89 -54 149 -114 60 -60 123 -141 114 -149 -2 -2 -26 -16 -52 -31 -41 -23
-48 -32 -45 -54 4 -36 37 -38 93 -5 25 14 47 25 49 23 11 -12 46 -91 60 -136
17 -50 19 -53 52 -53 19 0 34 2 34 4 0 2 -10 35 -21 72 -80 258 -295 488 -552
590 -150 60 -377 81 -526 49z"/>
<path d="M2167 2403 c-4 -3 -7 -78 -7 -165 l0 -158 35 0 35 0 0 153 c0 106 -4
157 -12 165 -13 13 -41 16 -51 5z"/>
<path d="M851 1863 c-12 -82 -25 -156 -28 -165 -3 -14 2 -18 21 -18 22 0 26 4
26 30 0 27 3 30 34 30 30 0 35 -4 41 -30 5 -22 12 -30 29 -30 l22 0 -27 163
c-15 89 -28 163 -28 165 -1 1 -16 2 -34 2 l-33 0 -23 -147z m73 -10 l7 -63
-27 0 c-24 0 -26 3 -20 33 3 17 8 52 12 76 9 54 19 37 28 -46z"/>
<path d="M1024 1995 c-8 -20 1 -265 10 -287 10 -23 59 -38 93 -29 45 12 53 41
53 194 l0 137 -25 0 -24 0 -3 -142 c-3 -131 -5 -143 -22 -146 -10 -2 -22 2
-27 10 -5 7 -9 73 -9 146 0 126 -1 132 -20 132 -11 0 -23 -7 -26 -15z"/>
<path d="M1210 1990 c0 -15 7 -20 25 -20 l25 0 0 -145 0 -145 25 0 24 0 3 143
c3 139 4 142 26 145 14 2 22 10 22 23 0 17 -8 19 -75 19 -68 0 -75 -2 -75 -20z"/>
<path d="M1414 1996 c-17 -13 -19 -29 -22 -138 -3 -137 5 -167 51 -179 15 -4
41 -3 57 3 41 14 53 58 48 183 -3 84 -7 107 -22 124 -23 25 -82 28 -112 7z
m81 -48 c3 -13 5 -68 3 -123 -3 -99 -3 -100 -28 -100 -25 0 -25 0 -28 109 -1
61 0 116 2 123 9 22 45 15 51 -9z"/>
<path d="M1590 1845 c0 -158 1 -165 20 -165 19 0 20 7 21 113 0 126 9 119 29
-20 12 -84 15 -93 34 -93 20 0 23 9 35 98 19 141 30 147 31 15 0 -106 1 -113
20 -113 19 0 20 7 20 165 l0 165 -33 0 -34 0 -12 -87 c-14 -99 -22 -135 -27
-131 -2 2 -11 52 -20 111 l-17 107 -33 0 -34 0 0 -165z"/>
<path d="M1867 1992 c-14 -15 -17 -41 -17 -148 0 -71 4 -134 8 -141 12 -20 58
-32 89 -24 46 12 54 41 51 179 -3 109 -5 125 -22 138 -28 20 -89 18 -109 -4z
m78 -147 c0 -109 -2 -120 -19 -123 -29 -6 -36 16 -36 120 0 113 5 130 34 126
20 -3 21 -8 21 -123z"/>
<path d="M2040 1845 l0 -165 60 0 c78 0 100 19 100 89 0 31 -6 55 -15 65 -12
12 -13 20 -5 35 5 11 10 40 10 65 0 58 -24 76 -97 76 l-53 0 0 -165z m98 113
c7 -7 12 -24 12 -38 0 -30 -17 -50 -42 -50 -15 0 -18 8 -18 43 0 24 3 47 7 50
10 11 28 8 41 -5z m0 -137 c9 -5 12 -24 10 -52 -3 -40 -6 -44 -30 -47 -28 -3
-28 -2 -28 52 0 47 3 56 18 56 9 0 23 -4 30 -9z"/>
<path d="M2240 1845 c0 -158 1 -165 20 -165 19 0 20 7 20 165 0 158 -1 165
-20 165 -19 0 -20 -7 -20 -165z"/>
<path d="M2330 1845 l0 -165 65 0 c58 0 65 2 65 20 0 17 -7 20 -40 20 l-40 0
0 145 0 145 -25 0 -25 0 0 -165z"/>
<path d="M2497 2004 c-4 -4 -7 -79 -7 -166 l0 -159 73 3 c56 2 72 6 72 18 0
10 -14 17 -45 20 l-45 5 0 50 0 50 38 3 c28 2 37 8 37 22 0 14 -9 20 -37 22
-38 3 -38 3 -38 48 l0 45 45 5 c31 3 45 10 45 20 0 12 -15 16 -65 18 -36 2
-69 0 -73 -4z"/>
<path d="M2660 1993 c1 -10 11 -83 24 -163 l22 -145 32 -3 c36 -4 35 -8 57
143 31 202 30 185 6 185 -11 0 -21 -3 -21 -7 0 -5 -7 -53 -15 -108 -8 -55 -15
-107 -15 -115 0 -12 -2 -13 -9 -1 -5 7 -14 62 -22 122 -12 104 -14 109 -36
109 -15 0 -23 -6 -23 -17z"/>
<path d="M2850 1845 l0 -165 70 0 c63 0 70 2 70 20 0 17 -7 20 -45 20 l-45 0
0 55 0 55 35 0 c28 0 35 4 35 20 0 16 -7 20 -36 20 l-35 0 3 48 3 47 43 3 c34
3 42 7 42 23 0 17 -7 19 -70 19 l-70 0 0 -165z"/>
<path d="M3030 1846 c0 -159 1 -166 20 -166 19 0 20 7 20 112 0 146 6 140 60
-69 9 -36 15 -43 35 -43 l25 0 0 165 c0 158 -1 165 -20 165 -19 0 -20 -7 -20
-97 0 -53 -3 -94 -6 -90 -3 3 -16 45 -29 94 -22 86 -23 88 -54 91 l-31 3 0
-165z"/>
<path d="M3220 1991 c0 -14 8 -21 28 -23 l27 -3 3 -143 c3 -142 3 -143 25
-140 21 3 22 7 25 146 l3 142 24 0 c18 0 25 5 25 20 0 18 -7 20 -80 20 -72 0
-80 -2 -80 -19z"/>
<path d="M3427 1995 c-21 -21 -30 -67 -18 -97 5 -14 25 -41 44 -59 44 -43 60
-74 52 -100 -9 -28 -49 -22 -53 9 -3 16 -10 22 -29 22 -23 0 -25 -3 -19 -32 9
-44 27 -60 69 -61 51 -1 77 25 77 77 0 45 -11 65 -65 119 -28 28 -36 43 -33
64 4 39 45 45 54 9 4 -17 13 -26 25 -26 25 0 26 51 1 73 -23 21 -86 22 -105 2z"/>
<path d="M1285 1600 c9 -14 1815 -14 1815 0 0 7 -310 10 -911 10 -604 0 -908
-3 -904 -10z"/>
</g>
</svg>